<?xml version="1.0" encoding="utf-8"?>
<!DOCTYPE svg PUBLIC "-//W3C//DTD SVG 1.1//EN" "http://www.w3.org/Graphics/SVG/1.1/DTD/svg11.dtd">
<svg version="1.1" xmlns="http://www.w3.org/2000/svg" xmlns:xlink="http://www.w3.org/1999/xlink"
  viewBox="0 0 32 32" enable-background="new 0 0 32 32" xml:space="preserve">
  <path fill-rule="evenodd" clip-rule="evenodd" fill="#FFFFFF" d="M15.91,13.03c2.16,0,4.09-1.88,4.09-4.06
    c0-2.19-1.93-3.96-4.09-3.96c-2.16,0-3.91,1.77-3.91,3.96C12.01,11.15,13.76,13.03,15.91,13.03z M7.44,13.01
    c1.35,0,2.55-1.22,2.55-2.57c0-1.34-1.02-2.43-2.43-2.43C6.14,8.01,5,9.1,5,10.44C5,11.78,6.09,13.01,7.44,13.01z M21.97,14.97
    l-3.46,0l-2.48,5l-2.56-5l-3.44,0c-0.55,0-0.99,0.45-0.99,1l0,8.02c0,0.55,0.45,1,0.99,1L21.97,25c0.55,0,0.99-0.45,0.99-1v-8.03
    C22.97,15.42,22.52,14.97,21.97,14.97z M4.63,14.01c-0.36,0-0.66,0.3-0.66,0.66v5.65c0,0.37,0.51,0.66,0.87,0.66h3.13l0.01-4.61
    L6.8,14.01H4.63z M27.39,13.98h-2.17l-1.18,2.36l0.01,4.61h3.13c0.36,0,0.87-0.29,0.87-0.66v-5.65
    C28.05,14.27,27.76,13.98,27.39,13.98z M24.59,12.98c1.35,0,2.45-1.22,2.45-2.57c0-1.34-1.15-2.43-2.57-2.43
    c-1.42,0-2.43,1.09-2.43,2.43C22.03,11.75,23.24,12.98,24.59,12.98z"/>
</svg>
