<?xml version="1.0" encoding="utf-8"?>
<!DOCTYPE svg PUBLIC "-//W3C//DTD SVG 1.1//EN" "http://www.w3.org/Graphics/SVG/1.1/DTD/svg11.dtd">
<svg version="1.1" xmlns="http://www.w3.org/2000/svg" xmlns:xlink="http://www.w3.org/1999/xlink" 
  viewBox="0 0 48 48" enable-background="new 0 0 48 48" xml:space="preserve">
  <path fill-rule="evenodd" clip-rule="evenodd" fill="#FFFFFF" d="M16.549,29.603c0.717-0.851,0.664-1.018,1.644-1.773
    c-0.396-0.393-1.247-1.243-2.407-2.402L3.127,36.732c0,0-5.997,2.863-0.641,8.39c4.402,4.542,8.985-0.302,8.985-0.302l8.697-9.646
    c-1.314-0.297-2.535-0.842-3.188-1.448C15.761,32.586,15.832,30.458,16.549,29.603z M48.416,8.848
    c-1.094,1.089-7.249,8.683-12.364,3.731c-5.119-4.946,4.842-9.597,6.763-10.591c-1.554-1.179-9.755-4.627-16.142,3.227
    c-2.488,3.065-0.456,10.897-0.456,10.897l-2.878,2.57l2.58,2.587c0,0,0.357-0.54,1.362-1.25c1.362-0.852,2.157-1.824,4.582,0.134
    c0.593,0.48,0.99,1.102,1.26,1.771c2.111,0.083,7.221,0.099,10.118-1.497C48.104,17.742,49.55,13.318,48.416,8.848z
     M44.923,38.951L30.844,27.415c0,0,0.626-2.979-1.009-4.298c-1.546-1.247-2.051-0.63-2.921-0.086
    c-0.634,0.45-1.67,1.607-1.67,1.607L4.872,4.208L0.333,3.234c0,0,0.471,3.763,1.081,4.488c1.675,1.4,18.347,18.122,20.173,19.931
    c-0.623,0.486-1.05,0.937-1.507,1.48c-0.456,0.545-0.503,1.9,0.275,2.625c0.777,0.725,2.815,1.328,4.156,0.969
    c1.099,1.449,10.452,12.598,11.52,13.709c0,0,1.567,3.034,4.068,0.508c1.617-1.628,3.823-3.561,4.578-4.253
    C47.21,40.374,44.923,38.951,44.923,38.951z"/>
</svg>
